<svg xmlns="http://www.w3.org/2000/svg" viewBox="0 0 1024 1024">
  <defs>
    <radialGradient id="ink" cx="50%" cy="40%" r="80%">
      <stop offset="0%" stop-color="#3A2F1B"/>
      <stop offset="65%" stop-color="#262017"/>
      <stop offset="100%" stop-color="#17140E"/>
    </radialGradient>
    <linearGradient id="gOuter" x1="0" y1="0" x2="0" y2="1">
      <stop offset="0%" stop-color="#B99A5F"/>
      <stop offset="100%" stop-color="#83683A"/>
    </linearGradient>
    <linearGradient id="gMid" x1="0" y1="0" x2="0" y2="1">
      <stop offset="0%" stop-color="#D0B478"/>
      <stop offset="100%" stop-color="#9A7C45"/>
    </linearGradient>
    <linearGradient id="gLight" x1="0" y1="0" x2="0" y2="1">
      <stop offset="0%" stop-color="#EEDCAC"/>
      <stop offset="100%" stop-color="#C0A268"/>
    </linearGradient>
    <clipPath id="water">
      <path d="M0 0 L1024 0 L1024 705 Q 512 795 0 705 Z"/>
    </clipPath>
  </defs>
  <rect width="1024" height="1024" fill="url(#ink)"/>
  <circle cx="512" cy="512" r="424" fill="none" stroke="#D6BC7E" stroke-width="8" opacity="0.5"/>
  <g clip-path="url(#water)">
    <g fill="url(#gOuter)">
      <path d="M250 480 C 205 570, 258 665, 512 780 C 415 600, 325 520, 250 480 Z"/>
      <path d="M774 480 C 819 570, 766 665, 512 780 C 609 600, 699 520, 774 480 Z"/>
    </g>
    <g fill="url(#gMid)">
      <path d="M352 352 C 282 460, 295 610, 512 790 C 458 560, 408 440, 352 352 Z"/>
      <path d="M672 352 C 742 460, 729 610, 512 790 C 566 560, 616 440, 672 352 Z"/>
    </g>
    <path d="M512 278 C 596 372, 620 528, 512 800 C 404 528, 428 372, 512 278 Z" fill="url(#gLight)"/>
  </g>
  <circle cx="512" cy="224" r="18" fill="#EEDCAC"/>
  <path d="M300 748 Q 512 812 724 748" fill="none" stroke="#D6BC7E" stroke-width="16" stroke-linecap="round" opacity="0.75"/>
  <path d="M390 804 Q 512 846 634 804" fill="none" stroke="#D6BC7E" stroke-width="11" stroke-linecap="round" opacity="0.4"/>
</svg>
